<svg width="14" height="14" viewBox="0 0 14 14" fill="none" xmlns="http://www.w3.org/2000/svg">
<path d="M13.9932 12.4504L14 1.54728C13.9957 1.34433 13.9514 1.14427 13.8695 0.958593C13.7134 0.584191 13.4158 0.286638 13.0414 0.130472C12.8557 0.0486432 12.6557 0.00430423 12.4527 0L1.54964 0.00675715C1.34633 0.00688315 1.14498 0.0470543 0.957088 0.124977C0.769199 0.2029 0.598451 0.317048 0.454595 0.460904C0.164064 0.751435 0.000702736 1.14534 0.000448261 1.55595C0.000193786 1.96657 0.163067 2.36027 0.453238 2.65044C0.743409 2.94061 1.13711 3.10349 1.54773 3.10323L8.73286 3.08788L0.452297 11.3684C0.16295 11.6578 0.000253735 12.0501 2.96535e-07 12.459C-0.000253142 12.868 0.161957 13.2601 0.450945 13.5491C0.739933 13.838 1.13203 14.0003 1.54097 14C1.94992 13.9997 2.34221 13.8371 2.63156 13.5477L10.9121 5.26714L10.8968 12.4523C10.8958 12.6558 10.9352 12.8575 11.0126 13.0457C11.0899 13.2338 11.2039 13.4048 11.3477 13.5486C11.4915 13.6925 11.6625 13.8064 11.8506 13.8838C12.0388 13.9612 12.2405 14.0005 12.444 13.9995C12.6476 14.0003 12.8493 13.9607 13.0376 13.883C13.2259 13.8054 13.3969 13.6913 13.541 13.5473C13.685 13.4032 13.7991 13.2322 13.8767 13.0439C13.9544 12.8556 13.9939 12.6539 13.9932 12.4504Z" fill="black"/>
</svg>
