<svg width="40" height="39" viewBox="0 0 40 39" fill="none" xmlns="http://www.w3.org/2000/svg">
<path d="M3.11475 31.5302L5.53803 29.1069L10.3846 33.9535L7.96131 36.3768L3.11475 31.5302Z" fill="black"/>
<path d="M1.50337 37.9955C2.83988 39.3319 5.01417 39.3319 6.35069 37.9955L1.50337 33.1482C0.166847 34.4847 0.166847 36.659 1.50337 37.9955Z" fill="black"/>
<path d="M29.603 33.9559L34.4496 29.1094L36.8729 31.5326L32.0263 36.3792L29.603 33.9559Z" fill="black"/>
<path d="M33.6499 37.9955C34.9864 39.3319 37.1607 39.3319 38.4972 37.9955C39.8337 36.659 39.8337 34.4847 38.4972 33.1482L33.6499 37.9955Z" fill="black"/>
<path d="M32.8413 27.4931L31.2256 25.8772L33.6491 23.4536C34.0957 23.0071 34.0957 22.2843 33.6491 21.8377C33.2025 21.3913 32.4799 21.3913 32.0333 21.8377L22.3388 31.5324C21.8923 31.979 21.8923 32.7016 22.3388 33.1482C22.7853 33.5947 23.508 33.5947 23.9546 33.1482L26.3782 30.7245L27.994 32.3402L32.8413 27.4931Z" fill="black"/>
<path d="M10.3049 21.1147L8.8499 22.5696L8.04199 21.7617C7.59542 21.3153 6.87281 21.3153 6.42624 21.7617C5.97967 22.2083 5.97967 22.9311 6.42624 23.3776L8.8499 25.8011L7.15783 27.4932L12.0052 32.3404L13.6971 30.6485L16.1207 33.0721C16.5673 33.5187 17.2901 33.5187 17.7365 33.0721C18.1831 32.6256 18.1831 31.903 17.7365 31.4564L16.9287 30.6485L18.3837 29.1935L10.3049 21.1147Z" fill="black"/>
<path d="M38.3571 0H31.894C31.5911 0 31.3007 0.119965 31.0861 0.334453L21.6162 9.80441L29.695 17.8832L39.1649 8.4132C39.3796 8.19872 39.4995 7.90836 39.4995 7.60544V1.14237C39.4994 0.511163 38.9882 0 38.3571 0Z" fill="black"/>
<path d="M8.91441 0.334453C8.69977 0.119965 8.40942 0 8.1065 0H1.64342C1.01229 0 0.500977 0.511163 0.500977 1.14237V7.60544C0.500977 7.90836 0.620941 8.19872 0.835582 8.4132L21.5312 29.109L29.6101 21.0302L8.91441 0.334453Z" fill="black"/>
</svg>
