<svg width="34" height="52" viewBox="0 0 34 52" fill="none" xmlns="http://www.w3.org/2000/svg">
<path d="M33.8862 21.1792C33.7057 20.8139 33.339 20.5835 32.9378 20.5833H20.3641L23.2871 1.24827C23.3764 0.656975 22.9787 0.103762 22.3988 0.0126606C22.0083 -0.0486833 21.6166 0.11595 21.3821 0.440138L0.207612 29.6902C-0.140825 30.1716 -0.0404176 30.85 0.431834 31.2051C0.61452 31.3425 0.835654 31.4167 1.06267 31.4167H13.6364L10.7134 50.7517C10.6385 51.2445 10.9038 51.7257 11.3557 51.9165C11.4847 51.9721 11.6234 52.0004 11.7635 52C12.1009 51.9999 12.4181 51.8366 12.6184 51.5599L33.7929 22.3099C34.0305 21.9811 34.0665 21.544 33.8862 21.1792Z" fill="black"/>
</svg>
