<svg width="32" height="31" viewBox="0 0 32 31" fill="none" xmlns="http://www.w3.org/2000/svg">
<path d="M31.66 12.8982L24.6478 19.8473L26.3038 29.6621C26.3758 30.0913 26.2025 30.5251 25.8557 30.7814C25.6599 30.9268 25.4268 31 25.1938 31C25.0148 31 24.8347 30.9565 24.6703 30.8684L16 26.2345L7.33078 30.8672C6.95254 31.071 6.49212 31.0378 6.14539 30.7803C5.79867 30.5239 5.62531 30.0902 5.69735 29.661L7.3533 19.8462L0.340023 12.8982C0.0338253 12.5938 -0.0776216 12.1383 0.0552141 11.7252C0.18805 11.312 0.540402 11.0087 0.964801 10.9458L10.6562 9.51524L14.9902 0.586244C15.3696 -0.195415 16.6304 -0.195415 17.0098 0.586244L21.3438 9.51524L31.0352 10.9458C31.4596 11.0087 31.812 11.3109 31.9448 11.7252C32.0776 12.1395 31.9662 12.5927 31.66 12.8982Z" fill="black"/>
</svg>
