<svg width="40" height="40" viewBox="0 0 40 40" fill="none" xmlns="http://www.w3.org/2000/svg">
<path d="M37.143 8.57175C37.143 8.01163 36.8159 7.50312 36.3053 7.27153L20.5911 0.128697C20.2158 -0.0428989 19.7847 -0.0428989 19.4094 0.128697L3.69517 7.27153C3.18457 7.50312 2.85742 8.01163 2.85742 8.57175C2.85742 9.13188 3.18457 9.64039 3.69517 9.87197L19.4094 17.0148C19.5971 17.1006 19.7986 17.1432 20.0002 17.1432C20.2018 17.1432 20.4034 17.1006 20.5911 17.0148L36.3053 9.87197C36.8159 9.64039 37.143 9.13188 37.143 8.57175Z" fill="black"/>
<path d="M17.7336 20.1286L2.01939 12.9858C1.57924 12.7856 1.06445 12.8226 0.654993 13.0849C0.24693 13.3478 0 13.8005 0 14.286V31.4288C0 31.989 0.327148 32.4975 0.837749 32.7291L16.552 39.8719C16.7403 39.9577 16.9419 40.0002 17.1428 40.0002C17.4128 40.0002 17.682 39.9235 17.9164 39.7728C18.3244 39.5099 18.5714 39.0572 18.5714 38.5717V21.4289C18.5714 20.8687 18.2442 20.3602 17.7336 20.1286Z" fill="black"/>
<path d="M39.3451 13.0849C38.9363 12.8212 38.4216 12.785 37.9807 12.9859L22.2665 20.1287C21.7559 20.3603 21.4287 20.8688 21.4287 21.4289V38.5717C21.4287 39.0572 21.6756 39.5099 22.0837 39.7729C22.3181 39.9236 22.5873 40.0003 22.8573 40.0003C23.0582 40.0003 23.2598 39.9577 23.4481 39.872L39.1623 32.7291C39.6729 32.4975 40.0001 31.989 40.0001 31.4289V14.2861C40.0001 13.8006 39.7532 13.3479 39.3451 13.0849Z" fill="black"/>
</svg>
