<svg width="305" height="74" viewBox="0 0 305 74" fill="none" xmlns="http://www.w3.org/2000/svg">
<path d="M101.993 27.0826C102.623 27.493 103.252 27.9053 104.059 28.4317C103.383 28.8957 102.779 29.3097 102.122 29.7594C101.995 29.1455 102.053 28.4924 101.775 28.2693C101.042 27.6876 100.169 27.27 99.0821 27.5091C98.9918 27.7928 98.8944 28.0998 98.7598 28.5227C98.3685 28.2782 98.0321 28.0694 97.6372 27.8232C96.6598 28.4014 96.3588 29.3186 96.5447 30.3876C96.7395 31.5047 97.5504 32.0936 98.5686 32.4041C99.0183 32.5415 99.4946 32.5808 99.9515 32.7004C102.009 33.2393 102.558 34.0531 102.395 36.4979C102.023 36.2249 101.726 36.0179 101.439 35.7948C100.035 34.7026 98.4251 34.4689 96.7448 34.7776C95.4044 35.0239 94.9847 35.6645 95.0255 37.0244C95.0786 38.8 96.0489 40.1063 97.4017 40.9986C100.842 43.2703 104.608 43.8699 108.534 42.5119C109.414 42.2067 110.163 41.393 110.846 40.6898C111.149 40.3775 111.149 39.7619 111.273 39.28C111.33 39.0605 111.3 38.6697 111.406 38.6322C112.819 38.1308 112.295 37.0886 111.935 36.0232C113.529 37.0029 114.005 38.7929 113.182 40.0902C113.088 40.2383 112.923 40.3615 112.883 40.5203C112.226 43.1275 110.567 44.8336 108.228 46.0257C107.151 46.5735 107.178 47.348 108.158 48.0726C108.435 48.276 108.762 48.4098 109.207 48.6507C107.957 49.2932 106.774 49.0951 105.563 48.9059C106.478 50.1141 107.215 51.4008 108.245 52.3733C109.949 53.9794 110.305 56.1173 110.614 58.1731C110.986 60.6465 110.696 63.1574 109.467 65.4452C109.355 65.654 109.278 65.8914 109.131 66.0698C107.142 68.4486 104.955 70.4687 101.988 71.7037C97.724 73.4757 93.2884 73.6863 88.8157 73.8326C85.4001 73.9451 81.9792 73.9361 78.5618 73.979C78.3848 73.9808 78.1882 74.0307 78.0359 73.97C77.5791 73.788 76.8762 73.6631 76.7487 73.3312C76.4937 72.662 77.2055 72.4853 77.6995 72.339C78.6911 72.0445 78.8894 71.3753 78.8203 70.4206C78.7654 69.6639 78.8788 68.8876 78.9815 68.1292C79.2435 66.184 79.0647 64.2567 78.9726 62.3187C77.673 61.8386 76.692 62.208 75.6933 62.8291C75.0772 63.211 74.2449 63.7374 73.673 63.5839C72.7346 63.3323 73.3472 62.2366 73.1578 61.5317C73.0852 61.2604 73.1454 60.9535 73.1454 60.4092C77.3365 60.1344 81.4728 60.3021 85.7826 60.2468C85.8499 61.2586 85.9349 62.1277 85.9579 62.9986C86.0252 65.604 86.0234 68.2131 86.1367 70.8167C86.2005 72.2854 86.4909 72.521 87.8277 72.3175C90.034 71.9803 92.2508 71.6626 94.4199 71.154C99.7585 69.903 103.893 63.9319 103.093 58.4712C102.407 53.801 99.9054 50.3907 95.5159 48.4848C93.0459 47.4123 90.4713 46.9554 87.8012 47.0518C87.1743 47.075 86.5564 47.3016 85.8038 47.4622V58.3088H73.2038C73.1454 57.3255 73.0798 56.2405 73.0161 55.159C74.291 54.5077 75.086 55.2233 75.8669 55.7943C76.7788 56.4618 77.6836 56.9115 78.962 56.2208C79.4719 53.3156 78.4627 50.3372 78.8681 47.4212C78.0218 46.8983 77.3259 46.4664 76.63 46.0364C76.6725 45.8972 76.715 45.7598 76.7593 45.6206C79.4596 45.0834 82.1846 45.4635 84.9079 45.5438C87.6135 45.6241 90.3243 45.5617 93.3203 45.5617C92.6988 44.2804 92.1658 43.0722 91.5302 41.9212C91.176 41.2805 90.5935 40.813 89.7737 41.0057C89.0335 41.1788 88.7786 41.7731 88.6705 42.4601C88.6351 42.6903 88.5926 42.9188 88.5519 43.1543C88.0455 42.8509 87.5869 42.3388 87.1212 42.3316C83.3568 42.2656 79.5924 42.2942 75.8934 42.2942C75.302 43.372 74.8222 44.2465 74.2981 45.203C73.7722 45.1512 73.2516 45.1084 72.7363 45.0477C70.4292 44.7765 68.1361 44.9103 65.8732 45.4011C63.196 45.9793 60.9561 47.2909 59.1872 49.4538C56.726 52.4643 54.8579 55.8175 53.2927 59.3617C53.0589 59.8917 52.8057 60.4128 52.5136 61.0445C51.6052 60.4788 51.4459 59.6722 51.4406 58.8638C51.4299 57.0828 51.4228 55.2964 51.5521 53.5226C51.7132 51.2848 52.0107 49.0558 52.2639 46.6895C56.0478 46.727 59.0898 45.3243 61.6821 42.6778C59.9273 42.3584 13.389 42.519 12.1584 42.8384C11.9406 43.3417 11.7086 43.8753 11.4731 44.4196C10.4868 44.3517 9.55017 44.1947 8.62234 44.2411C6.05664 44.3714 3.97611 45.4225 2.55604 47.671C2.07088 48.4402 1.67248 49.3574 0.615392 49.5359C-0.354932 47.8316 -0.170783 46.131 1.11826 44.8068C3.68572 42.1692 5.81229 39.1783 8.16728 36.0768C5.77865 33.2018 3.46616 30.3555 1.08108 27.5733C-0.115893 26.176 -0.356703 24.4539 0.741109 22.7122C1.21388 23.1655 1.7858 23.5135 2.07619 24.0239C4.16912 27.7072 7.39173 28.6352 11.4182 27.9195C11.7759 28.7779 12.1283 29.6256 12.516 30.5625H60.5205C58.2488 28.1319 55.4901 27.4752 52.3046 27.3949C52.0621 25.3962 51.7734 23.4153 51.5946 21.4255C51.4459 19.7695 51.375 18.1009 51.368 16.4395C51.3626 15.2724 51.3024 14.041 52.4658 12.9328C52.7491 13.5271 53.0041 14.0161 53.2201 14.5211C54.649 17.8654 56.4179 21.0008 58.6029 23.9132C61.4537 27.7143 65.2889 29.167 69.8838 28.9956C71.295 28.9421 72.7115 28.9867 74.2786 28.9867C74.7106 30.3019 75.8562 30.3769 77.1701 30.3697C81.3559 30.3465 85.5418 30.4268 89.7294 30.4643C90.3049 30.4697 90.8821 30.4643 91.4576 30.4643C91.794 29.4114 92.0808 28.5156 92.3907 27.5466C91.9976 27.4805 91.6222 27.4181 91.1955 27.3467C91.3637 26.1689 92.1995 25.8512 93.0937 25.8976C94.4677 25.9708 95.5301 25.2374 97.0901 24.8162C96.272 24.2826 95.7497 23.9436 95.2185 23.5973C94.5385 23.9828 93.9347 24.3469 93.3115 24.6734C91.4664 25.6371 89.5754 26.3474 87.4293 26.3509C85.8463 26.3545 84.2669 26.7114 82.6804 26.7935C81.2161 26.8702 79.7446 26.7864 78.275 26.7864C77.5703 26.7864 76.8638 26.806 76.159 26.8256C73.7438 26.8952 71.3304 26.9773 68.9152 27.0255C68.6638 27.0308 68.4106 26.831 68.1964 26.7417C68.1698 25.8852 68.7647 25.8156 69.2534 25.6639C69.8413 25.4836 70.1317 25.1231 70.1299 24.4986C70.1246 21.8949 70.1282 19.2912 70.1282 16.6162C69.241 16.1897 68.3911 16.3181 67.5589 16.9285C66.8099 17.4763 65.9813 18.3811 65.0676 17.8743C64.076 17.3228 64.7967 16.154 64.7453 15.2581C64.7365 15.0957 64.8179 14.9298 64.8764 14.6924H76.6106V24.9376C77.9775 25.4622 79.2329 25.6014 80.6246 25.4676C83.5232 25.1856 86.0411 24.0952 88.497 22.5802C91.6134 20.6582 93.9365 14.7852 92.6404 11.0805C92.3872 10.3541 92.2809 9.5743 92.0118 8.85512C91.3708 7.1473 90.3456 5.74464 88.7892 4.72923C85.4692 2.56277 81.7915 1.71511 77.9031 1.59554C77.6818 1.58841 77.4569 1.72046 77.2108 1.79541C76.2759 5.40379 77.0302 9.09604 76.6725 12.7776H64.6975C64.7648 11.6979 64.825 10.7396 64.8923 9.67602C66.8719 9.49578 68.0742 12.0281 70.1618 10.8039C70.1618 8.97112 70.1706 7.03487 70.1529 5.10041C70.1494 4.75064 69.9157 4.37053 69.9936 4.05645C70.3335 2.67699 70.0042 1.74188 68.5345 1.35641C68.3451 1.30645 68.1096 0.895998 68.1415 0.690773C68.1751 0.473058 68.4726 0.235711 68.7098 0.128638C68.9666 0.0108572 69.2853 -0.00163466 69.5775 0.000149897C75.41 0.0483329 81.2639 -0.0890779 87.0468 0.769294C91.5355 1.43493 95.5567 3.28552 98.31 7.10447C99.1759 8.30548 99.7567 9.84912 100.028 11.3196C100.44 13.5485 100.129 15.822 99.4079 17.9885C99.1883 18.6488 98.7828 19.2609 98.3933 19.848C97.8125 20.7224 97.1715 21.5576 96.4331 22.5784C98.565 22.9745 100.66 22.9781 102.374 23.7936C104.038 24.586 105.313 26.2117 106.602 27.7161C105.093 27.3521 103.587 26.988 102.078 26.624C102.051 26.7774 102.025 26.9309 101.998 27.0826H101.993ZM87.2611 38.5359C87.8879 37.2349 88.4899 35.984 89.1415 34.6313H78.4326C79.0966 35.3701 79.649 35.8822 80.0793 36.4854C80.7273 37.3938 79.5711 37.9113 79.4153 38.7804C80.097 38.7804 80.6778 38.7982 81.2586 38.7768C83.2559 38.7036 85.2532 38.618 87.2611 38.5359ZM56.1204 36.6746C55.8106 35.8091 55.251 35.6199 54.541 35.6431C53.8398 35.6645 53.128 35.7198 52.4392 35.6217C51.1165 35.4325 50.3746 36.0375 49.854 37.408C51.7398 37.408 53.5158 37.4437 55.2864 37.3741C55.5857 37.3616 55.8654 36.8994 56.1204 36.6746ZM22.0741 35.8965C18.2902 35.313 18.129 35.7662 17.5801 37.4259C18.3645 37.4259 19.1295 37.367 19.882 37.4402C21.0807 37.5562 21.6934 36.9565 22.0758 35.8965H22.0741ZM30.1678 35.9804C27.3046 35.1809 26.6034 35.404 25.6579 37.408C27.2639 37.2903 29.1284 38.3075 30.1678 35.9804ZM33.7038 37.3295C37.2912 37.6365 37.3496 37.6168 38.072 35.9625C35.154 35.329 34.8618 35.4147 33.7038 37.3295ZM46.2578 36.0518C43.3079 35.3308 42.527 35.5824 42.0259 37.3991C43.4761 37.0886 45.284 38.2521 46.2578 36.0518ZM98.0427 45.6527C98.0427 45.8026 98.0462 45.9543 98.048 46.1042C98.712 46.1898 99.376 46.2755 100.04 46.3612C100.056 46.2309 100.074 46.0988 100.09 45.9686C99.4079 45.8633 98.7262 45.758 98.0444 45.6527H98.0427ZM99.9585 24.5253C99.9391 24.6574 99.9178 24.7876 99.8983 24.9197H100.869C100.872 24.8287 100.874 24.7395 100.878 24.6485C100.571 24.6074 100.265 24.5664 99.9585 24.5253Z" fill="white"/>
<path d="M118.38 6.66012C120.418 5.67861 122.327 6.47096 124.298 6.02482C124.441 7.78082 124.62 9.23881 124.666 10.7021C124.771 14.1374 124.813 17.5763 124.877 21.0133C124.886 21.488 124.949 21.9788 124.863 22.4356C124.601 23.799 124.923 24.7859 126.57 25.0768C125.601 26.5276 124.236 25.7442 123.166 26.0422C122.956 27.4591 122.747 28.8796 122.515 30.4411C122.927 30.4733 123.43 30.5446 123.931 30.5464C131.071 30.5607 138.21 30.5571 145.351 30.5714C164.765 30.6089 184.176 30.6517 203.59 30.6945C216.452 30.7231 229.316 30.7606 242.178 30.7856C248.492 30.798 254.806 30.707 261.117 30.8141C266.112 30.898 271.004 30.3573 275.817 29.0474C277.891 28.4835 279.925 28.2568 282.087 28.7868C284.94 29.4864 287.891 29.7808 290.74 30.4947C295.025 31.5672 299.259 32.8467 303.51 34.0495C303.845 34.1441 304.243 34.2583 304.449 34.5028C304.73 34.8383 305.045 35.3326 304.994 35.7109C304.946 36.0589 304.488 36.5015 304.118 36.6282C300.778 37.7721 297.414 38.841 294.066 39.9617C290.664 41.1003 287.284 42.3102 283.87 43.4095C282.055 43.9948 280.155 44.1911 278.282 43.7468C272.674 42.4155 266.994 42.105 261.248 42.1121C220.888 42.1603 180.525 42.1371 140.165 42.1389C132.73 42.1389 125.295 42.1496 117.86 42.1639C117.293 42.1639 116.726 42.2246 116.103 42.5618C116.505 42.8188 116.907 43.0758 117.336 43.3506C117.243 43.4952 117.185 43.7165 117.059 43.7646C116.525 43.9716 115.852 44.416 115.443 44.2483C114.076 43.6861 113.066 44.3286 111.995 44.9389C111.8 45.0495 111.565 45.0906 110.991 45.2851C111.414 44.6926 111.68 44.3696 111.892 44.0127C112.376 43.2025 112.843 42.3798 113.298 41.5536C113.69 40.8433 114.047 40.1134 114.435 39.4014C114.718 38.8821 115.071 38.3967 115.32 37.8613C116.169 36.0429 115.567 33.0038 113.511 31.9562C111.145 30.7516 108.652 31.1103 107.248 33.1073C107.253 33.1626 107.248 33.2607 107.266 33.2661C107.53 33.3339 107.795 33.391 108.08 33.4535C108.218 33.9817 108.314 34.5706 108.53 35.1131C108.719 35.5896 109.043 36.0107 109.318 36.4747C107.246 36.9798 105.309 36.2945 104.429 34.667C104.236 34.3083 103.239 33.6087 104.541 33.2447C104.576 33.234 104.534 32.9163 104.516 32.7432C104.284 30.6339 105.013 29.2883 106.913 28.562C107.615 28.2943 108.397 28.1587 109.15 28.1212C111.68 27.9909 114.217 27.9802 116.748 27.825C118.212 27.7357 119.675 27.4841 120.852 26.4866C120.514 25.8298 120.202 25.2231 119.788 24.4165C119.395 24.5628 118.918 24.7109 118.463 24.9126C114.097 26.8399 109.762 26.8631 105.557 24.5146C103.723 23.4903 102.575 21.8699 102.506 19.6481C102.393 16.0308 102.232 12.4135 102.219 8.79445C102.216 7.77012 101.57 7.54705 100.898 7.20977C101.835 6.33355 103.664 6.14081 107.317 6.50665C107.36 9.06749 107.377 11.6551 107.457 14.2391C107.515 16.1897 107.572 18.1473 107.777 20.0853C108.004 22.2232 109.495 23.5081 111.326 24.1434C114.232 25.1517 116.891 24.313 119.237 22.4035C120.271 21.5612 119.979 20.312 119.999 19.252C120.059 16.0612 119.944 12.8668 119.931 9.67245C119.926 8.44646 119.915 7.26866 118.38 6.66012ZM281.317 36.7442C281.31 36.5747 281.303 36.4033 281.296 36.2338C281.097 36.1446 280.908 36.0161 280.701 35.9733C280.065 35.843 279.427 35.6824 278.785 35.6467C271.601 35.2541 264.419 34.5956 257.234 34.5581C231.568 34.4261 205.902 34.5046 180.237 34.5046C168.139 34.5046 156.044 34.5117 143.947 34.5046C136.335 34.4992 128.723 34.4707 121.111 34.4528C120.478 34.4528 119.846 34.4528 119.071 34.4528C119.158 35.0274 119.214 35.3951 119.267 35.7448C119.754 35.6949 120.107 35.6592 120.872 35.5824C120.232 36.7335 119.775 37.5579 119.292 38.4288C119.737 38.4288 120.147 38.4306 120.56 38.4288C127.933 38.3896 135.304 38.336 142.677 38.3146C145.98 38.3057 149.284 38.3931 152.586 38.3842C156.242 38.3735 159.897 38.2611 163.553 38.2628C176.828 38.2682 190.103 38.3271 203.377 38.3164C217.185 38.3039 230.994 38.1843 244.802 38.2075C255.129 38.2236 265.453 38.2807 275.753 37.4009C277.614 37.2421 279.463 36.9655 281.319 36.7424L281.317 36.7442Z" fill="white"/>
<path d="M131.808 68.0364C130.91 68.1738 130.018 68.3755 129.115 68.429C128.001 68.495 126.878 68.4004 125.761 68.4433C124.835 68.479 124.258 68.1167 123.748 67.319C122.039 64.635 120.251 62.0028 118.487 59.3563C118.298 59.0726 118.071 58.812 117.832 58.5033C117.124 58.9673 117.347 59.6115 117.343 60.1451C117.329 61.8618 117.395 63.5786 117.377 65.2953C117.364 66.441 117.288 67.5742 118.884 67.8847C117.747 68.5628 114.942 68.7074 112.396 68.2702C112.302 61.885 112.207 55.4606 112.111 48.9041C111.594 48.6668 111.008 48.3991 110.422 48.1314C110.422 47.9994 110.422 47.8655 110.42 47.7335C110.809 47.6032 111.197 47.3659 111.587 47.3623C115.645 47.3284 119.704 47.2748 123.76 47.3552C125.476 47.3891 127.151 47.7959 128.261 49.3628C129.899 51.6756 129.274 54.5594 126.772 55.8746C125.694 56.4403 124.529 56.8365 123.229 57.3826C124.093 58.7835 124.877 60.1486 125.75 61.4514C126.705 62.8737 127.889 64.1585 128.69 65.6576C129.214 66.6409 129.89 67.0317 130.836 67.2565C131.165 67.3351 131.486 67.4546 131.811 67.5546C131.811 67.7152 131.811 67.8758 131.811 68.0364H131.808ZM117.313 55.698C119.05 55.7015 120.499 55.6462 121.821 54.9395C123.693 53.9384 124.114 51.4329 122.74 49.7857C121.573 48.3884 119.314 47.9512 117.313 48.7221V55.698Z" fill="white"/>
<path d="M206.306 54.4095C206.16 55.1465 205.993 55.582 206.002 56.0156C206.066 59.4545 206.183 62.8933 206.237 66.3339C206.253 67.3333 206.749 67.8365 208.038 67.8347C206.68 68.6735 202.882 68.8733 201.34 68.3933C201.242 65.4024 201.124 62.3829 201.051 59.3617C200.977 56.2744 200.901 53.1853 200.922 50.098C200.931 48.8899 200.185 48.4991 199.226 48.185C200.265 47.307 201.474 47.1981 205.557 47.5854C205.612 48.2117 205.713 48.8845 205.717 49.5573C205.72 50.4353 205.965 51.1509 206.62 51.7791C209.437 54.4845 212.215 57.2291 215.027 59.9398C215.556 60.4484 216.174 60.8642 216.854 61.405C217.515 60.0469 217.247 58.8441 217.263 57.6949C217.292 55.689 217.2 53.6832 217.162 51.6773C217.157 51.3811 217.212 51.0795 217.175 50.7886C217.012 49.5234 216.943 48.1992 215.441 47.514C217.584 47.141 219.645 47.1446 221.747 47.1785C221.864 48.392 222.032 49.4324 222.053 50.4781C222.11 53.1371 222.067 55.7979 222.127 58.4569C222.18 60.8268 222.299 63.1967 222.423 65.5648C222.471 66.4571 222.458 67.4421 223.898 67.617C221.796 68.5129 219.779 67.9222 217.665 68.3969C217.609 67.5974 217.656 67.0049 217.509 66.4678C217.295 65.6933 217.131 64.7689 216.612 64.2406C213.715 61.2836 210.719 58.4248 207.748 55.5409C207.415 55.2179 207.018 54.9627 206.31 54.4095H206.306Z" fill="white"/>
<path d="M185.808 68.5771C182.647 68.5682 179.775 67.9525 177.331 66.1287C175.177 64.519 173.37 62.5489 172.807 59.7632C172.418 57.8394 172.745 56.0031 173.732 54.2989C176.126 50.1587 180.039 48.3956 184.434 47.4908C188.384 46.6752 192.062 47.7085 195.421 49.7518C198.059 51.3579 199.727 53.7439 200.031 56.9597C200.231 59.0672 199.713 61.016 198.516 62.6738C197.34 64.3013 195.886 65.7147 193.921 66.4374C193.259 66.6819 192.605 66.9603 191.977 67.2851C189.985 68.3112 187.877 68.7163 185.808 68.5807V68.5771ZM177.907 57.6378C177.887 63.7089 182.13 67.4386 187.746 66.8104C191.093 66.4374 194.153 62.5328 194.516 59.8988C194.948 56.7705 194.296 54.0062 192.108 51.6899C188.807 48.1939 185.363 48.3813 181.769 50.5888C179.191 52.1717 177.744 54.7111 177.907 57.6378Z" fill="white"/>
<path d="M214.13 6.76185C216.193 6.07658 218.1 6.59232 220.175 6.39424C220.258 7.17587 220.384 7.85043 220.385 8.525C220.385 9.287 220.605 9.89018 221.159 10.4238C223.884 13.0506 226.583 15.7025 229.306 18.3311C229.713 18.7237 230.202 19.0325 230.813 19.5018C231.424 18.3133 231.259 17.2319 231.266 16.2236C231.282 14.2748 231.156 12.3261 231.093 10.3774C231.089 10.2596 231.116 10.14 231.112 10.0222C231.082 8.6749 231.156 7.28294 229.561 6.49596C231.574 6.14797 233.503 6.05695 235.656 6.21578C235.656 8.31799 235.62 10.2578 235.663 12.1958C235.735 15.4562 235.858 18.7148 235.958 21.9734C235.966 22.2108 235.955 22.4499 235.967 22.6855C236.029 23.8026 236.01 24.9608 237.632 25.4783C235.493 26.3402 233.596 25.5782 231.907 26.0511C231.698 25.7852 231.558 25.6871 231.565 25.6014C231.76 23.4956 230.7 22.0876 229.214 20.7474C226.891 18.6524 224.727 16.377 222.478 14.1945C222.076 13.8055 221.593 13.5021 220.826 12.9132C220.709 14.414 220.534 15.5615 220.548 16.7054C220.578 18.9504 220.701 21.1954 220.81 23.4385C220.885 24.9679 220.902 24.9679 222.225 25.878C221.352 26.6704 220.327 26.2046 219.417 26.2903C218.436 26.3831 217.441 26.3117 216.27 26.3117C216.228 25.4016 216.178 24.5896 216.154 23.7794C216.038 19.8052 215.927 15.8292 215.819 11.855C215.803 11.2625 215.798 10.6682 215.814 10.0758C215.855 8.66955 215.293 7.5649 214.128 6.76185H214.13Z" fill="white"/>
<path d="M142.113 19.1199C142.139 18.5399 142.198 17.9582 142.189 17.3782C142.143 14.5996 142.081 11.8229 142.019 9.0443C141.996 7.98071 141.697 7.07594 140.468 6.73866C141.458 6.13904 144.262 5.94096 146.403 6.27289C146.506 7.2187 146.683 8.1895 146.702 9.16565C146.794 13.4843 146.839 17.8047 146.906 22.1251C146.911 22.4785 146.979 22.83 146.989 23.1834C147.018 24.1577 147.234 25.0197 148.427 25.3462C147.12 26.0119 144.755 26.1618 142.664 25.7924C142.27 23.6937 141.244 21.8182 139.584 20.1657C137.61 18.2116 135.622 16.27 133.624 14.3391C133.173 13.9019 132.663 13.5271 131.932 12.9168C131.781 13.661 131.616 14.0892 131.622 14.514C131.662 17.4174 131.776 20.3191 131.788 23.2226C131.793 24.3986 131.965 25.3926 133.327 25.8566C132.077 26.367 129.569 26.4937 127.314 26.1993C127.248 25.3141 127.145 24.3915 127.115 23.4653C126.979 19.4322 126.86 15.4009 126.745 11.3678C126.731 10.8967 126.756 10.4184 126.814 9.94907C126.977 8.63207 126.871 7.46319 125.221 7.08129C126.407 6.26753 126.814 6.23006 131.115 6.51202C131.198 7.05988 131.374 7.66306 131.363 8.26267C131.347 9.14781 131.565 9.86163 132.22 10.4916C134.906 13.0721 137.557 15.69 140.239 18.2758C140.679 18.6988 141.21 19.0271 141.699 19.4001C141.837 19.3055 141.973 19.2109 142.111 19.1181L142.113 19.1199Z" fill="white"/>
<path d="M171.793 65.9913C168.726 66.7711 165.865 67.6884 162.934 68.2059C157.442 69.1749 152.546 67.824 149.052 63.2574C147.212 60.8518 146.641 58.0161 147.687 54.8557C148.836 51.3883 151.303 49.6215 154.431 48.4027C158.012 47.0072 161.691 47.1071 165.399 47.6425C166.676 47.8263 167.949 48.0262 169.363 48.2403C170.33 49.3253 170.424 51.299 172.439 51.722L172.223 52.0396C170.668 52.1342 169.114 52.2395 167.557 52.3216C166.831 52.3591 166.313 52.0432 166.065 51.3258C165.61 49.9999 164.554 49.4038 163.304 49.0826C159.823 48.1903 156.68 48.8256 154.309 51.6256C153.481 52.6035 153.121 54.049 152.749 55.3411C151.751 58.8049 152.555 61.9207 155.002 64.5065C157.195 66.8247 162.522 67.4189 165.286 65.8414C165.916 65.4827 166.245 65.0348 166.238 64.2888C166.217 62.2205 166.231 60.154 166.231 58.0232C165.787 57.7645 165.351 57.5093 164.919 57.2595C165.176 56.7205 169.634 56.7027 171.793 57.1577V65.9966V65.9913Z" fill="white"/>
<path d="M200.984 26.3027C196.385 26.1243 192.511 24.5664 189.975 20.419C188.394 17.8314 188.483 15.2438 189.966 12.6937C192.169 8.91044 195.803 7.30255 199.827 6.46024C203.588 5.67325 207.101 6.63513 210.299 8.60885C212.649 10.0579 214.154 12.2065 214.541 15.0636C214.839 17.2532 214.265 19.2305 212.99 20.9134C211.891 22.3624 210.563 23.6598 208.75 24.279C208.139 24.4878 207.546 24.7609 206.968 25.05C205.084 25.9904 203.112 26.4776 200.984 26.3027ZM201.908 24.7109C206.101 24.9893 209.683 20.6421 209.499 16.3396C209.449 15.1867 209.191 13.9697 208.725 12.9186C206.453 7.79688 201.472 6.31748 197.005 9.62426C192.537 12.9328 192.865 18.9254 196.32 22.6105C197.71 24.0935 199.493 24.8073 201.906 24.7109H201.908Z" fill="white"/>
<path d="M164.435 15.3259H170.711V23.8686C167.667 24.6288 164.858 25.5711 161.974 25.9958C156.942 26.7382 152.435 25.398 149.305 21.1543C147.662 18.9272 147.113 16.3235 148.083 13.4182C149.5 9.17455 152.807 7.58451 156.646 6.6494C159.306 6.00161 162.022 6.15508 164.715 6.58694C164.947 6.62442 165.175 6.71543 165.407 6.72792C167.327 6.82607 169.089 7.10982 169.807 9.34587C169.96 9.82056 170.626 10.1257 171.042 10.4969C170.367 10.8056 166.79 11.1893 166.225 10.9038C165.891 10.7343 165.537 10.4041 165.407 10.0633C164.904 8.73198 163.824 8.15914 162.592 7.87896C160.012 7.29006 157.563 7.53454 155.398 9.26913C154.401 10.0668 153.592 10.952 153.328 12.2618C153.14 13.1862 152.846 14.0892 152.65 15.0118C152.076 17.7137 153.052 19.9693 154.613 22.0947C156.253 24.3219 161.668 25.323 164.442 23.7508C164.889 23.4974 165.413 22.9388 165.453 22.482C165.599 20.8366 165.482 19.1681 165.602 17.5191C165.677 16.5019 165.244 15.9826 164.294 15.7114C164.341 15.5829 164.389 15.4544 164.437 15.3259H164.435Z" fill="white"/>
<path d="M129.626 61.7334C130.938 58.63 132.108 55.8568 133.284 53.0854C133.493 52.5946 133.778 52.1307 133.941 51.6256C134.447 50.0481 133.785 48.8185 132.208 48.3224C131.891 48.2225 131.574 48.1208 130.913 47.9102C131.51 47.6282 131.781 47.3909 132.055 47.3873C133.704 47.3641 135.356 47.3659 137.003 47.4212C137.746 47.4462 138.263 47.8334 138.646 48.558C139.609 50.38 140.657 52.1592 141.716 53.9295C142.594 55.3982 143.565 56.8115 144.441 58.2802C145.893 60.7144 147.304 63.1735 148.73 65.6219C149.303 66.607 150.086 67.3297 151.543 67.5332C151.108 67.8919 150.925 68.172 150.729 68.1845C149.261 68.2738 147.786 68.2648 146.322 68.3773C145.351 68.4522 144.788 68.0221 144.333 67.228C143.805 66.309 143.203 65.4327 142.669 64.5958C140.282 64.4709 137.992 64.3834 135.708 64.2228C133.447 64.0622 131.181 64.6886 128.716 64.3138C128.942 63.6839 129.091 63.2663 129.284 62.7274H141.27C141.257 61.7173 140.677 61.7226 140.048 61.7244C137.158 61.7369 134.269 61.7298 131.381 61.7316C130.915 61.7316 130.448 61.7316 129.628 61.7316L129.626 61.7334ZM132.367 60.2058C135.087 60.2718 137.39 60.3093 139.924 59.7846C138.506 57.4879 137.201 55.3714 135.65 52.8588C134.47 55.4963 133.481 57.711 132.365 60.2058H132.367Z" fill="white"/>
<path d="M244.255 56.4921C244.078 56.5706 243.973 56.6563 243.865 56.6581C238.803 56.7669 233.742 56.8954 228.68 56.9561C226.899 56.9775 224.207 54.8967 223.673 53.2388C223.294 52.0646 224.167 49.9535 225.608 49.1576C226.879 48.4562 228.264 47.7656 229.672 47.5461C232.811 47.0571 235.888 47.4283 238.647 49.2343C238.84 49.361 239.008 49.5341 239.157 49.7108C239.223 49.7893 239.212 49.9321 239.292 50.3033C237.85 50.6869 236.411 51.1563 234.936 51.415C234.451 51.5007 233.818 51.1206 233.344 50.8119C231.97 49.9196 230.504 49.411 228.862 49.4199C228.062 49.4253 227.217 49.4895 226.989 50.3978C226.784 51.2134 227.237 51.8683 227.968 52.3037C229.337 53.1211 230.681 53.9794 232.065 54.7682C232.453 54.9895 232.946 55.134 233.388 55.1305C235.449 55.1091 237.509 55.0073 239.57 54.9699C240.657 54.9502 241.618 54.6933 242.55 54.0615C243.832 53.1925 244.219 53.4494 244.318 55.0216C244.345 55.4303 244.372 55.8407 244.389 56.2494C244.391 56.2994 244.334 56.3511 244.251 56.4921H244.255Z" fill="white"/>
<path d="M231.165 58.4426H244.436C244.502 59.4098 244.567 60.3735 244.636 61.3854C242.703 62.0456 241.856 59.9773 240.366 60.013C240.366 60.7393 240.461 61.4657 240.348 62.1599C239.933 64.71 238.379 66.3321 236.105 67.4154C231.617 69.5497 227.542 68.5736 223.665 65.8735C223.48 65.745 223.357 65.5309 223.158 65.306C223.617 64.4352 224.518 64.4566 225.235 64.1407C226.696 63.4947 227.923 63.6214 229.288 64.6457C230.698 65.7022 232.442 66.234 234.282 66.0538C234.742 66.0091 235.232 65.9378 235.638 65.7361C237.41 64.8599 237.467 63.5554 235.898 62.3419C234.384 61.1712 232.938 59.9095 231.165 58.4426Z" fill="white"/>
<path d="M186.461 19.8391C185.464 19.5089 184.83 19.4625 184.425 19.1324C183.384 18.2865 182.257 18.1705 180.972 18.1901C177.516 18.2437 177.507 18.1901 177.601 21.7057C177.622 22.532 177.776 23.3582 177.748 24.1809C177.719 24.9857 178.157 25.2927 178.799 25.2909C180.446 25.2873 182.155 25.4586 183.718 25.0696C184.823 24.7948 185.739 23.7312 186.723 22.9995C187.143 22.6872 187.484 22.2411 187.938 22.0073C188.233 21.8556 188.667 21.9787 189.018 21.9787C189.089 23.3439 189.151 24.5021 189.211 25.6656C188.311 26.4241 187.283 26.2046 186.307 26.2081C184.43 26.2135 182.555 26.1635 180.678 26.1742C177.981 26.1885 175.285 26.2474 172.586 26.2545C172.289 26.2545 171.989 26.0404 171.497 25.8512C172.088 25.4479 172.503 25.166 172.836 24.9393V16.6608H186.132C186.227 17.5816 186.319 18.4774 186.461 19.8355V19.8391Z" fill="white"/>
<path d="M256.531 12.0923C256.625 13.0452 256.703 13.8483 256.788 14.7102C256.535 14.8209 256.333 14.9833 256.126 14.9886C251.471 15.0993 246.814 15.2135 242.157 15.2777C240.339 15.3027 237.808 13.4289 237.242 11.7604C236.884 10.7057 237.741 8.80514 239.041 7.96283C240.548 6.98667 242.187 6.3246 244.009 6.3014C246.564 6.2675 249.072 6.47629 251.28 7.99138C251.561 8.18411 251.882 8.31974 252.184 8.48213C252.115 8.6588 252.045 8.83726 251.976 9.01393C250.637 9.3869 249.316 9.90442 247.954 10.0722C247.301 10.1525 246.509 9.66351 245.884 9.26377C244.748 8.53567 243.531 8.21266 242.212 8.16805C241.468 8.14307 240.7 8.22694 240.433 9.01572C240.151 9.8491 240.594 10.488 241.332 10.9288C242.55 11.6551 243.733 12.4438 244.98 13.1148C245.468 13.3772 246.081 13.495 246.642 13.511C248.115 13.5538 249.592 13.495 251.067 13.4967C252.558 13.4985 254.01 13.4254 255.258 12.4135C255.529 12.194 255.997 12.219 256.53 12.0941L256.531 12.0923Z" fill="white"/>
<path d="M186.086 12.2029C186.162 13.0827 186.226 13.8376 186.288 14.5675C185.041 15.0654 176.48 15.1939 172.859 14.7852C171.979 12.194 173.369 9.28876 171.765 6.4995C177.36 6.0837 182.835 6.54054 188.393 6.1301C188.444 7.22581 188.552 8.09846 188.497 8.96219C188.471 9.37264 188.227 9.89373 187.908 10.1186C187.704 10.2631 187.123 10.0454 186.824 9.83305C186.059 9.28876 185.378 8.62848 184.623 8.06991C184.207 7.76297 183.724 7.38821 183.249 7.3543C181.617 7.23295 179.975 7.21689 178.337 7.22938C177.742 7.23474 177.34 7.65232 177.376 8.28584C177.457 9.76167 177.532 11.2411 177.737 12.7008C177.781 13.0167 178.373 13.4967 178.702 13.4878C180.719 13.4343 182.86 13.9643 184.627 12.4278C184.834 12.2476 185.147 12.1744 185.425 12.1066C185.579 12.0691 185.76 12.1512 186.084 12.2047L186.086 12.2029Z" fill="white"/>
<path d="M236.491 22.8264C237.985 22.3428 239.182 21.8521 240.427 21.6058C240.896 21.513 241.481 21.9716 242.001 22.2018C243.126 22.6979 244.204 23.3689 245.376 23.6598C246.299 23.89 247.365 23.7937 248.312 23.5884C249.031 23.4332 249.734 22.9014 249.787 22.0055C249.833 21.2132 249.296 20.7581 248.703 20.2995C247.313 19.2252 245.982 18.0724 244.654 16.9749C245.481 16.6233 253.337 16.4288 256.808 16.7304C256.852 17.5995 256.898 18.5042 256.942 19.3929C255.168 20.1139 254.384 18.1313 252.937 18.1937C252.937 18.9397 253.063 19.6856 252.914 20.3709C252.434 22.5962 251.081 24.0953 249.026 25.0768C244.781 27.1022 240.928 26.21 237.252 23.6616C237.07 23.5349 236.943 23.3279 236.489 22.8282L236.491 22.8264Z" fill="white"/>
<path d="M193.28 55.4142C192.194 57.5147 190.74 58.7264 189.411 60.0202C189.159 60.2647 188.518 60.1897 188.074 60.1326C186.907 59.9881 185.753 59.7543 184.589 59.5883C183.367 59.4152 182.156 59.2278 180.95 59.8025C180.529 60.0023 179.968 59.9042 179.029 59.9773C180.223 58.398 181.08 57.0649 182.156 55.9496C182.532 55.5606 183.467 55.5659 184.12 55.6391C185.459 55.7872 186.781 56.0942 188.107 56.3493C189.292 56.5778 190.413 56.6188 191.474 55.8318C191.831 55.5659 192.408 55.6016 193.28 55.416V55.4142Z" fill="white"/>
<path d="M207.405 14.2766C206.689 15.8096 205.54 16.7411 204.504 17.7529C204.297 17.9546 203.858 18.0099 203.537 17.9831C202.78 17.9225 202.022 17.8047 201.275 17.653C199.881 17.3693 198.505 17.1498 197.126 17.7529C196.883 17.8582 196.557 17.7672 195.931 17.7672C196.837 16.5537 197.531 15.4848 198.381 14.5604C198.663 14.2534 199.343 14.2017 199.831 14.2284C200.586 14.2695 201.338 14.4515 202.08 14.621C203.647 14.9779 205.189 15.2046 206.64 14.2088C206.748 14.1339 206.973 14.232 207.405 14.2766Z" fill="white"/>
</svg>
