<svg width="39" height="40" viewBox="0 0 39 40" fill="none" xmlns="http://www.w3.org/2000/svg">
<path d="M32.1912 18.739H33.5306C33.2847 15.8526 32.1366 13.2198 30.3699 11.1242L29.4275 12.0667C28.9713 12.5229 28.2318 12.5229 27.7756 12.0667C27.3194 11.6106 27.3194 10.871 27.7756 10.4148L28.7181 9.47234C26.6225 7.70568 23.9897 6.55762 21.1033 6.31171V7.65109C21.0415 9.20088 18.8283 9.19971 18.7671 7.65109V6.31171C15.8807 6.55762 13.2479 7.70568 11.1524 9.47234L12.0948 10.4148C12.551 10.8709 12.551 11.6105 12.0948 12.0667C11.6387 12.5229 10.8991 12.5229 10.443 12.0667L9.50048 11.1242C7.73381 13.2198 6.58576 15.8525 6.33984 18.739H7.67923C9.22902 18.8008 9.22785 21.014 7.67923 21.0751H6.33984C6.58576 23.9616 7.73381 26.5943 9.5004 28.6899L10.443 27.7474C10.8991 27.2913 11.6387 27.2911 12.0948 27.7474C12.551 28.2035 12.551 28.943 12.0948 29.3993L11.1523 30.3418C13.2479 32.1085 15.8805 33.2565 18.7671 33.5024V32.163C18.8288 30.6132 21.0421 30.6144 21.1032 32.163V33.5024C23.9897 33.2564 26.6224 32.1084 28.7179 30.3418L27.7754 29.3992C27.3192 28.943 27.3193 28.2035 27.7754 27.7472C28.2315 27.2912 28.9711 27.2913 29.4273 27.7473L30.3698 28.6898C32.1365 26.5943 33.2845 23.9616 33.5304 21.0751H32.191C30.6414 21.0135 30.6426 18.8001 32.1912 18.739ZM23.915 23.8868C23.4588 24.343 22.7193 24.3431 22.2631 23.8868L19.1093 20.7331C18.8903 20.5141 18.7671 20.2169 18.7671 19.9072V14.7677C18.8289 13.2179 21.0421 13.219 21.1033 14.7677V19.4233L23.9149 22.235C24.3711 22.691 24.3711 23.4307 23.915 23.8868Z" fill="black"/>
<path d="M37.5565 26.4683C36.9671 26.2061 36.2766 26.4714 36.0145 27.0607C28.091 44.2599 2.59481 38.8595 2.3362 19.9068C2.27437 5.57994 18.9079 -2.80717 30.3792 5.74285L29.4903 5.71715C27.9391 5.73693 27.8768 7.94567 29.4229 8.05235L34.1128 8.18769C34.4994 8.19906 34.8694 8.01668 35.0953 7.70131C35.3217 7.38601 35.3767 6.9789 35.2421 6.61485L33.6143 2.21435C33.3906 1.60937 32.7188 1.30038 32.1136 1.5241C31.5085 1.7479 31.1995 2.41985 31.4233 3.02483L31.721 3.82963C24.0758 -1.94989 12.5095 -1.10685 5.83893 5.81106C-6.66142 18.3364 2.24144 39.8254 19.9352 39.842C27.8018 39.8421 34.9511 35.1978 38.1488 28.0103C38.4111 27.4209 38.1459 26.7306 37.5565 26.4683Z" fill="black"/>
</svg>
