<svg width="39" height="38" viewBox="0 0 39 38" fill="none" xmlns="http://www.w3.org/2000/svg">
<path fill-rule="evenodd" clip-rule="evenodd" d="M21.9731 0.560413C20.4154 -0.186803 18.5846 -0.186805 17.0269 0.560413L1.51194 8.00325C-0.503974 8.97031 -0.503987 11.7569 1.51194 12.724L17.0269 20.1667C18.5846 20.9141 20.4154 20.9141 21.9731 20.1669L37.488 12.724C39.504 11.7569 39.504 8.97033 37.488 8.00325L21.9731 0.560413ZM1.60095 16.5968C1.84782 16.4783 2.13713 16.4783 2.38398 16.5968L17.0269 23.6213C18.5846 24.3685 20.4154 24.3685 21.9731 23.6213L36.616 16.5968C36.8628 16.4783 37.1521 16.4783 37.3991 16.5968L37.488 16.6395C39.504 17.6066 39.504 20.3932 37.488 21.3603L21.9731 28.8031C20.4154 29.5503 18.5846 29.5503 17.0269 28.8031L1.51194 21.3603C-0.503987 20.3932 -0.503974 17.6066 1.51194 16.6395L1.60095 16.5968ZM2.38398 25.2333C2.13713 25.1148 1.84782 25.1148 1.60095 25.2333L1.51194 25.276C-0.503974 26.2431 -0.503987 29.0297 1.51194 29.9968L17.0269 37.4396C18.5846 38.1868 20.4154 38.1868 21.9731 37.4396L37.488 29.9968C39.504 29.0297 39.504 26.2431 37.488 25.276L37.3991 25.2333C37.1521 25.1148 36.8628 25.1148 36.616 25.2333L21.9731 32.2578C20.4154 33.005 18.5846 33.005 17.0269 32.2578L2.38398 25.2333Z" fill="black"/>
</svg>
