<svg width="40" height="40" viewBox="0 0 40 40" fill="none" xmlns="http://www.w3.org/2000/svg">
<path d="M17 5.301V9.425C13.34 10.462 10.462 13.34 9.425 17H5.302C6.495 11.123 11.123 6.495 17 5.301ZM30.575 17H34.698C33.506 11.123 28.877 6.494 23 5.301V9.424C26.66 10.461 29.539 13.34 30.575 17ZM9.425 23H5.302C6.495 28.877 11.123 33.505 17 34.699V30.576C13.34 29.538 10.462 26.66 9.425 23ZM23 30.575V34.698C28.877 33.505 33.506 28.877 34.699 23H30.576C29.539 26.66 26.66 29.539 23 30.575ZM14 20C14 19.447 13.552 19 13 19H1C0.448 19 0 19.447 0 20C0 20.553 0.448 21 1 21H13C13.552 21 14 20.553 14 20ZM20 26C19.448 26 19 26.447 19 27V39C19 39.553 19.448 40 20 40C20.552 40 21 39.553 21 39V27C21 26.447 20.552 26 20 26ZM20 0C19.448 0 19 0.447 19 1V13C19 13.553 19.448 14 20 14C20.552 14 21 13.553 21 13V1C21 0.447 20.552 0 20 0ZM39 19H27C26.448 19 26 19.447 26 20C26 20.553 26.448 21 27 21H39C39.552 21 40 20.553 40 20C40 19.447 39.552 19 39 19Z" fill="black"/>
</svg>
