<svg width="38" height="30" viewBox="0 0 38 30" fill="none" xmlns="http://www.w3.org/2000/svg">
<path d="M5.81265 0.348083C5.81162 0.348083 5.81047 0.348083 5.80945 0.348083C5.45005 0.348083 5.11201 0.488185 4.85676 0.742799C4.59869 1.00023 4.45654 1.343 4.45654 1.7079V22.0981C4.45654 22.8458 5.06723 23.4556 5.81802 23.4575C8.98316 23.4651 14.286 24.1248 17.9443 27.9531V6.61414C17.9443 6.36068 17.8795 6.12257 17.7574 5.92553C14.7548 1.09017 8.98496 0.355504 5.81265 0.348083Z" fill="black"/>
<path d="M33.5433 22.098V1.70772C33.5433 1.34281 33.4011 1.00004 33.1431 0.742615C32.8878 0.488002 32.5495 0.3479 32.1905 0.3479C32.1893 0.3479 32.1882 0.3479 32.1872 0.3479C29.015 0.355449 23.2451 1.09012 20.2425 5.92547C20.1203 6.12251 20.0557 6.36062 20.0557 6.61408V27.9529C23.7139 24.1246 29.0168 23.4649 32.1819 23.4574C32.9326 23.4554 33.5433 22.8456 33.5433 22.098Z" fill="black"/>
<path d="M36.6403 5.05035H35.6544V22.0981C35.6544 24.0072 34.0989 25.5639 32.1869 25.5686C29.5022 25.575 25.0755 26.1 21.9404 29.0672C27.3625 27.7396 33.0784 28.6026 36.336 29.345C36.7427 29.4376 37.163 29.3419 37.4889 29.0822C37.8136 28.8231 37.9999 28.4358 37.9999 28.0201V6.40991C38 5.66028 37.39 5.05035 36.6403 5.05035Z" fill="black"/>
<path d="M2.34552 22.0981V5.05035H1.35956C0.610049 5.05035 0 5.66028 0 6.40991V28.0197C0 28.4355 0.18629 28.8227 0.511019 29.0818C0.836643 29.3414 1.25656 29.4375 1.66394 29.3446C4.92146 28.6021 10.6375 27.7392 16.0593 29.0668C12.9244 26.0997 8.4977 25.5749 5.813 25.5685C3.90109 25.5639 2.34552 24.0072 2.34552 22.0981Z" fill="black"/>
</svg>
