<svg width="40" height="41" viewBox="0 0 40 41" fill="none" xmlns="http://www.w3.org/2000/svg">
<path d="M39.2348 19.4155L33.4962 17.7309C30.9119 16.9825 28.5578 15.5654 26.6593 13.6151C24.7607 11.6648 23.3811 9.24669 22.6525 6.59208L21.0126 0.697214C20.9301 0.490972 20.7898 0.314572 20.6095 0.190428C20.4292 0.0662833 20.2171 0 20 0C19.7829 0 19.5708 0.0662833 19.3905 0.190428C19.2102 0.314572 19.0699 0.490972 18.9874 0.697214L17.3475 6.59208C16.6189 9.24669 15.2393 11.6648 13.3407 13.6151C11.4422 15.5654 9.0881 16.9825 6.50383 17.7309L0.765172 19.4155C0.544827 19.4797 0.350896 19.616 0.212805 19.8037C0.0747136 19.9915 0 20.2203 0 20.4556C0 20.6909 0.0747136 20.9198 0.212805 21.1075C0.350896 21.2952 0.544827 21.4315 0.765172 21.4958L6.50383 23.1803C9.0881 23.9287 11.4422 25.3459 13.3407 27.2961C15.2393 29.2464 16.6189 31.6645 17.3475 34.3191L18.9874 40.214C19.05 40.4403 19.1827 40.6396 19.3654 40.7814C19.5482 40.9233 19.771 41 20 41C20.229 41 20.4518 40.9233 20.6346 40.7814C20.8173 40.6396 20.95 40.4403 21.0126 40.214L22.6525 34.3191C23.3811 31.6645 24.7607 29.2464 26.6593 27.2961C28.5578 25.3459 30.9119 23.9287 33.4962 23.1803L39.2348 21.4958C39.4552 21.4315 39.6491 21.2952 39.7872 21.1075C39.9253 20.9198 40 20.6909 40 20.4556C40 20.2203 39.9253 19.9915 39.7872 19.8037C39.6491 19.616 39.4552 19.4797 39.2348 19.4155Z" fill="black"/>
</svg>
